<?xml version="1.0" standalone="no"?>

<svg version="1.0" xmlns="http://www.w3.org/2000/svg"
 width="60pt" height="60pt" viewBox="0 0 8500.000000 5154.000000"
 preserveAspectRatio="xMidYMid meet">

<g transform="translate(0.000000,3500.000000) scale(0.100000,-0.100000)"
fill="#000000" stroke="none">
<path d="M58505 50218 c-530 -60 -1065 -308 -1584 -737 -131 -108 -798 -773
-11781 -11746 -2945 -2942 -6680 -6673 -8298 -8290 -1619 -1617 -3012 -3012
-3095 -3100 -250 -266 -392 -457 -486 -657 -27 -57 -130 -335 -229 -618 -99
-283 -286 -816 -415 -1185 -229 -651 -349 -996 -694 -1985 -229 -659 -326
-940 -388 -1120 -29 -85 -97 -281 -150 -435 -53 -154 -155 -451 -226 -660 -72
-209 -172 -504 -224 -655 -454 -1329 -996 -2963 -1034 -3120 -50 -207 -65
-340 -65 -580 0 -396 74 -716 250 -1069 377 -759 1125 -1278 1976 -1370 161
-18 198 -14 552 59 548 113 443 81 1986 607 250 85 565 192 700 238 135 46
425 145 645 220 220 75 585 200 810 277 226 77 493 168 595 203 102 35 264 91
360 123 96 33 301 104 455 157 154 53 357 123 450 155 248 85 429 147 705 243
135 47 376 130 535 185 160 55 542 188 850 295 1756 612 1702 592 1907 709
143 82 246 151 378 256 52 42 482 459 955 927 473 467 5696 5685 11606 11595
7923 7921 10774 10778 10852 10872 414 505 653 1026 734 1608 24 171 23 536
-1 710 -80 583 -330 1119 -751 1610 -125 146 -1416 1452 -2895 2930 -1142
1141 -2326 2301 -2550 2498 -510 449 -1247 782 -1882 851 -114 13 -439 12
-553 -1z m591 -2225 c108 -39 213 -106 326 -207 150 -135 5289 -5285 5340
-5352 65 -84 111 -166 144 -254 26 -69 28 -86 28 -215 1 -135 -1 -143 -31
-220 -18 -44 -51 -109 -74 -145 -31 -50 -449 -473 -1758 -1780 -945 -943
-1955 -1949 -2245 -2234 l-527 -520 -3156 3156 -3156 3156 1495 1509 c2041
2057 2968 2981 3046 3032 129 86 218 112 372 107 97 -3 128 -8 196 -33z
m-6226 -6825 c267 -266 1032 -1028 1700 -1693 668 -666 1849 -1842 2624 -2614
l1409 -1404 -2514 -2511 c-7024 -7019 -13972 -13951 -13984 -13951 -7 0 -359
342 -782 760 -1375 1360 -5256 5197 -5386 5325 -70 68 -126 127 -125 130 2 3
361 361 798 795 437 434 1099 1091 1470 1459 371 369 981 975 1355 1346 1404
1393 2009 1994 2655 2636 645 641 1991 1976 4735 4699 732 725 1638 1625 2015
1999 377 375 982 976 1345 1336 363 361 1003 997 1422 1413 419 416 765 757
770 757 4 0 226 -217 493 -482z m-16671 -19506 c469 -486 995 -1030 1170
-1210 293 -303 1000 -1035 1780 -1842 179 -184 439 -453 580 -598 196 -203
252 -265 240 -272 -8 -5 -54 -23 -104 -39 -49 -16 -223 -75 -385 -131 -162
-56 -320 -110 -350 -120 -30 -10 -188 -64 -350 -120 -162 -56 -326 -112 -365
-125 -38 -13 -203 -69 -365 -125 -162 -56 -320 -110 -350 -120 -30 -10 -188
-64 -350 -120 -162 -56 -326 -112 -365 -125 -38 -12 -203 -69 -365 -125 -162
-56 -320 -110 -350 -120 -30 -10 -188 -64 -350 -120 -162 -56 -320 -110 -350
-120 -30 -10 -188 -64 -350 -120 -162 -56 -326 -112 -365 -125 -38 -12 -203
-69 -365 -125 -162 -56 -320 -110 -350 -120 -30 -10 -188 -64 -350 -120 -162
-56 -320 -110 -350 -120 -30 -10 -188 -64 -350 -119 -162 -56 -356 -123 -430
-148 -74 -25 -203 -69 -287 -98 l-152 -53 -100 75 -99 74 13 42 c7 23 43 141
80 262 37 121 80 261 96 310 15 50 56 178 89 285 34 107 74 233 90 280 16 47
70 213 120 370 116 360 311 943 481 1440 72 212 139 411 150 442 20 62 172
502 219 633 15 44 85 244 155 445 70 201 141 403 157 450 17 47 43 122 59 168
64 182 90 256 118 335 46 128 315 897 401 1147 43 124 111 317 150 430 40 113
80 230 90 260 27 83 206 601 219 632 10 27 15 22 323 -295 173 -177 698 -719
1167 -1205z"/>
<path d="M21900 42949 c-1493 -77 -2657 -669 -3350 -1704 -196 -293 -367 -650
-479 -1000 -107 -333 -169 -633 -217 -1055 -13 -118 -17 -615 -25 -3900 -13
-4877 -4 -30274 11 -30480 49 -679 198 -1257 460 -1780 197 -394 423 -705 731
-1005 409 -398 886 -685 1461 -879 358 -121 720 -193 1203 -238 176 -16 33720
-25 34094 -8 552 24 958 93 1398 239 261 87 578 232 800 368 1022 621 1665
1639 1842 2915 48 350 46 -108 46 8713 0 6989 -2 8326 -14 8523 l-14 232
-1104 0 -1103 0 0 -8347 c0 -5491 -4 -8408 -10 -8523 -64 -1108 -524 -1679
-1485 -1844 -77 -14 -198 -29 -270 -35 -182 -14 -18869 -23 -27385 -12 l-6715
8 -125 21 c-249 41 -391 78 -555 145 -600 243 -919 711 -1022 1498 -17 127
-18 970 -18 17104 0 16308 1 16976 18 17115 66 532 209 884 470 1156 284 297
637 448 1217 521 126 16 721 17 8593 20 l8457 3 0 1120 0 1120 -8377 -1
c-4608 -1 -8448 -6 -8533 -10z"/>
</g>
</svg>
