<svg width="105.000000" height="105.000000" viewBox="0 0 105 105" fill="none" xmlns="http://www.w3.org/2000/svg" xmlns:xlink="http://www.w3.org/1999/xlink">
	<desc>
			Created with Pixso.
	</desc>
	<defs>
		<clipPath id="clip30_24">
			<rect id="Lock" width="105.000000" height="105.000000" fill="white" fill-opacity="0"/>
		</clipPath>
	</defs>
	<g clip-path="url(#clip30_24)">
		<path id="path" d="M52.5 104.66C81.3 104.66 104.66 81.3 104.66 52.5C104.66 23.69 81.3 0.33 52.5 0.33C23.69 0.33 0.33 23.69 0.33 52.5C0.33 81.3 23.69 104.66 52.5 104.66Z" fill="#435563" fill-opacity="1.000000" fill-rule="evenodd"/>
		<path id="path" d="M52.5 29.02C45.29 29.02 39.45 34.86 39.45 42.06C39.45 46.33 41.5 50.12 44.67 52.5L42.06 73.36L62.93 73.36L60.32 52.5C63.49 50.12 65.54 46.33 65.54 42.06C65.54 34.86 59.7 29.02 52.5 29.02Z" fill="#FFFFFF" fill-opacity="1.000000" fill-rule="nonzero"/>
	</g>
</svg>
